<svg width="572" height="557" viewBox="0 0 572 557" fill="none" xmlns="http://www.w3.org/2000/svg">
    <path opacity="0.0526316"
        d="M44.4418 449.597C56.511 465.654 95.0855 492.524 152.83 471.546C225.01 445.323 252.926 375.813 317.348 339.771C364.896 313.169 492.66 273.239 566.127 317.363"
        stroke="white" stroke-width="3" />
    <path opacity="0.105263"
        d="M32.5373 415.935C42.8619 433.166 78.4164 463.92 138.037 449.093C212.563 430.558 247.592 364.347 315.429 335.237C365.497 313.751 496.735 287.395 565.187 338.956"
        stroke="white" stroke-width="3" />
    <path opacity="0.157895"
        d="M23.5437 381.819C32.0107 400.035 64.1557 434.337 125 425.823C201.055 415.18 242.813 352.994 313.321 331.133C365.36 314.999 498.635 302.505 561.322 360.939"
        stroke="white" stroke-width="3" />
    <path opacity="0.210526"
        d="M17.4927 347.556C24.0093 366.557 52.3926 404.031 113.793 401.923C190.544 399.289 238.574 341.808 310.98 327.437C364.422 316.831 498.272 318.336 554.507 383.003"
        stroke="white" stroke-width="3" />
    <path opacity="0.263158"
        d="M14.3835 313.453C18.8782 333.031 43.1889 373.267 104.474 377.589C181.079 382.992 234.854 330.846 308.366 324.123C362.623 319.161 495.583 334.649 544.751 404.839"
        stroke="white" stroke-width="3" />
    <path opacity="0.315789"
        d="M14.1832 279.818C16.6069 299.759 36.5786 342.316 97.0757 353.02C172.697 366.401 231.628 320.161 305.44 321.159C359.919 321.896 490.531 351.197 532.093 426.142"
        stroke="white" stroke-width="3" />
    <path opacity="0.368421"
        d="M16.8269 246.952C17.153 267.037 32.5669 311.448 91.6137 328.418C165.422 349.629 228.864 309.803 302.167 318.511C356.27 324.938 483.104 367.732 516.604 446.611"
        stroke="white" stroke-width="3" />
    <path opacity="0.421053"
        d="M22.2187 215.149C20.4436 235.158 31.1308 280.937 88.0804 303.986C159.267 332.796 226.524 299.82 298.516 316.142C351.651 328.189 473.317 384.006 498.388 465.955"
        stroke="white" stroke-width="3" />
    <path opacity="0.473684"
        d="M30.2325 184.69C26.3757 204.403 32.2191 251.049 86.4474 279.924C154.233 316.017 224.568 290.252 294.459 314.01C346.044 331.545 461.209 399.774 477.577 483.895"
        stroke="white" stroke-width="3" />
    <path opacity="0.526316"
        d="M40.7136 155.84C34.8172 175.042 35.7528 222.043 86.6659 256.429C150.307 299.41 222.951 281.138 289.975 312.072C339.445 334.903 446.847 414.796 454.332 500.166"
        stroke="white" stroke-width="3" />
    <path opacity="0.578947"
        d="M53.4799 128.849C45.6087 147.33 41.6262 194.171 88.6661 233.69C147.466 283.089 221.621 272.51 285.046 310.28C331.857 338.157 430.32 428.839 428.841 514.524"
        stroke="white" stroke-width="3" />
    <path opacity="0.631579"
        d="M68.3247 103.948C58.5648 121.504 49.708 167.673 92.3593 211.892C145.674 267.166 220.529 264.397 279.657 308.589C323.298 341.207 411.743 441.684 401.316 526.746"
        stroke="white" stroke-width="3" />
    <path opacity="0.684211"
        d="M85.0183 81.34C73.4767 97.7804 59.8424 142.77 97.638 191.205C144.882 251.75 219.617 256.82 273.802 306.951C313.795 343.952 391.252 453.123 371.991 536.629"
        stroke="white" stroke-width="3" />
    <path opacity="0.736842"
        d="M103.311 61.2061C90.1139 76.35 71.8517 119.668 104.377 171.789C145.034 236.94 218.829 249.794 267.478 305.315C303.384 346.293 369.005 462.963 341.12 543.998"
        stroke="white" stroke-width="3" />
    <path opacity="0.789474"
        d="M122.935 43.7016C108.227 57.3831 85.537 98.5548 112.436 153.79C146.06 222.834 218.108 243.331 260.686 303.633C292.112 348.14 345.179 471.03 308.976 548.706"
        stroke="white" stroke-width="3" />
    <path opacity="0.842105"
        d="M143.608 28.949C127.551 41.0182 100.682 79.5926 121.66 137.337C147.883 209.517 217.393 237.433 253.434 301.855C280.036 349.403 319.966 477.168 275.843 550.634"
        stroke="white" stroke-width="3" />
    <path opacity="0.894737"
        d="M165.037 17.0443C147.807 27.369 117.052 62.9235 131.88 122.544C150.414 197.07 216.625 232.099 245.736 299.936C267.221 350.004 293.578 481.242 242.017 549.694"
        stroke="white" stroke-width="3" />
    <path opacity="0.947368"
        d="M186.921 8.05079C168.705 16.5178 134.403 48.6628 142.917 109.507C153.56 185.562 215.747 227.32 237.607 297.828C253.741 349.868 266.236 483.142 207.802 545.829"
        stroke="white" stroke-width="3" />
    <path
        d="M208.952 2C189.951 8.51658 152.476 36.8999 154.584 98.3006C157.219 175.051 214.7 223.081 229.07 295.488C239.677 348.929 238.171 482.779 173.505 539.015"
        stroke="white" stroke-width="3" />
</svg>